<?xml version="1.0" encoding="UTF-8"?>
<!DOCTYPE svg PUBLIC "-//W3C//DTD SVG 1.1//EN" "http://www.w3.org/Graphics/SVG/1.1/DTD/svg11.dtd">
<!-- Creator: CorelDRAW -->
<svg xmlns="http://www.w3.org/2000/svg" xml:space="preserve" width="549.866mm" height="329.398mm" version="1.1" style="shape-rendering:geometricPrecision; text-rendering:geometricPrecision; image-rendering:optimizeQuality; fill-rule:evenodd; clip-rule:evenodd"
viewBox="0 0 7657.35 4587.14"
 xmlns:xlink="http://www.w3.org/1999/xlink"
 xmlns:xodm="http://www.corel.com/coreldraw/odm/2003">
 <defs>
  <style type="text/css">
   <![CDATA[
    .fil3 {fill:none;fill-rule:nonzero}
    .fil2 {fill:#0B223F}
    .fil0 {fill:#0B223F;fill-rule:nonzero}
    .fil1 {fill:#ED6F00;fill-rule:nonzero}
   ]]>
  </style>
 </defs>
 <g id="Camada_x0020_1">
  <metadata id="CorelCorpID_0Corel-Layer"/>
  <g id="_1407986840000">
   <g>
    <path class="fil0" d="M2010.53 295.64c-64.08,218.1 -212.06,334.56 -444.35,348.96 -69.92,4.38 -141.93,9.39 -215.6,15.44l-660.98 -1.04c-6.06,0 -10.86,4.8 -11.06,10.64l-3.34 149.64 -3.54 500.49c0,5.84 -3.97,10.85 -9.6,12.52 -270.7,75.76 -482.96,251.91 -639.28,476.69 -3.76,5.43 -12.1,2.72 -12.1,-3.75l-3.76 -923.33c-1.04,-238.34 -1.25,-477.11 -0.63,-716.29 0.21,-95.17 22.34,-160.29 125.44,-160.91 444.34,-2.29 821.69,-3.13 1132.04,-2.5 290.11,0.62 539.1,98.51 746.77,293.44z"/>
    <path class="fil1" d="M1995.91 3.87c89.33,3.34 457.07,2.71 1103.45,-1.67 170.1,-1.25 295.95,8.55 377.14,29.63 538.89,138.37 898.91,615.28 801.66,1184.64 -49.67,291.57 -194.52,518.22 -434.54,680.39 -10.22,6.89 -55.3,35.48 -135.24,85.99 -5,3.13 -6.26,10.02 -2.92,14.81 230.62,335.4 470.44,696.26 719.84,1083 11.06,16.9 13.78,34.85 8.35,54.06 -15.87,55.52 -63.87,75.97 -127.52,75.34 -136.29,-1.46 -323.29,-2.09 -561.01,-1.67 -39.24,0.21 -72.42,-21.29 -99.35,-64.07 -213.51,-339.57 -425.77,-678.73 -652.84,-998.06 -5.01,-6.89 -13.15,-11.06 -21.71,-11.06l-439.12 1.25c-5.85,0 -9.81,5.84 -7.73,11.27 1.46,3.55 1.05,312.02 -1.25,925.63 -0.42,90.37 -49.89,135.45 -148.4,135.24 -222.28,-0.21 -353.97,0 -394.88,1.05 -97.47,2.29 -153.82,-33.82 -153.82,-131.91 -0.42,-371.51 -0.83,-650.76 -1.25,-837.76 0,-6.68 3.76,-12.73 9.6,-15.65 329.97,-164.88 564.35,-375.88 694.8,-730.69 2.71,-7.31 9.81,-12.32 17.74,-12.32 63.66,-0.63 281.14,-2.09 652.22,-4.8 66.58,-0.42 125.85,-13.57 177.82,-39.66 339.57,-170.72 356.06,-628.01 -36.73,-764.09 -44.66,-15.44 -111.24,-22.54 -199.94,-21.29 -213.09,3.13 -415.75,2.92 -607.97,-0.42 -10.44,-0.21 -19.82,-6.47 -23.8,-16.28 -86.61,-211.01 -219.56,-385.7 -398.84,-524.07 -34.44,-26.72 -74.1,-57.81 -118.76,-93.5 -5.63,-4.6 -2.29,-13.78 5.01,-13.36z"/>
    <path class="fil1" d="M6466.48 1900.83c0.63,6.67 9.81,8.14 12.32,1.88 19.2,-46.54 27.75,-122.93 41.11,-174.07 145.27,-554.96 278.84,-1105.95 400.93,-1652.98 6.47,-28.8 34.44,-51.97 84.11,-69.5 5,-1.88 10.22,-2.5 15.44,-2.29 15.65,1.04 184.08,0.21 505.5,-2.09 55.72,-0.42 92.88,10.23 122.51,55.93 27.76,42.78 -16.49,139.21 -32.76,199.95 -308.9,1156.04 -572.08,2119.86 -789.77,2891.04 -11.06,38.82 -44.03,58.44 -99.34,58.65 -314.32,1.05 -473.98,1.46 -478.99,1.46 -93.29,-1.67 -103.94,-68.66 -127.32,-157.99 -161.12,-614.65 -318.49,-1197.16 -472.31,-1747.74 -2.51,-9.18 -15.65,-9.18 -18.16,0.21 -125.65,494.65 -280.3,1100.53 -464.17,1817.65 -14.19,55.31 -52.39,83.7 -114.37,85.37 -98.72,2.72 -188.68,3.13 -270.07,1.25 -22.75,-0.42 -43.62,-12.52 -55.52,-31.73 -65.85,-105.76 -133.97,-213.71 -203.72,-322.88l0 -0 296.53 -943.5 -2.65 -3.18c2.9,-1.32 5.33,-3.81 6.48,-7.32 28.17,-89.33 53.01,-176.99 74.72,-262.77 55.73,-220.19 190.13,-736.54 403.02,-1548.84 15.23,-57.61 59.9,-86.2 134.41,-85.78 158.4,1.04 295.32,1.04 411.16,0.21 68.04,-0.42 109.36,32.77 124.18,99.76 12.52,56.98 25.67,109.78 39.45,158.41 265.48,933.14 410.11,1444.06 434.11,1532.97 13.78,51.55 21.5,87.66 23.17,107.91z"/>
    <path class="fil2" d="M4818.44 1909.46l-296.53 943.5c-61.15,-95.71 -123.56,-192.37 -186.8,-289.31 -97.85,-149.96 -198.78,-302.29 -302.81,-457.03 -13.98,-20.66 -22.54,-39.44 -25.46,-56.14 -1.46,-7.51 1.46,-15.03 7.3,-19.62 284.05,-223.95 443.51,-511.34 478.16,-862.18 20.25,-204.95 -5.85,-399.47 -78.06,-583.34 -89.96,-228.75 -253.59,-411.78 -463.13,-564.98 -5.63,-4.18 -2.71,-13.36 4.38,-13.15 62.82,1.05 146.52,-1.04 251.08,-6.26 92.55,-4.63 151.15,4.53 179.75,100.92l153.29 661.91c34.5,158.78 74.43,344.26 124.41,572.37 16.55,75.52 60.03,260.93 127.77,543.82 2.72,11.06 6.05,18.99 10.02,23.37 0.66,0.73 1.38,1.35 2.14,1.88 2.92,1.48 7.85,2.09 11.83,1.06l2.65 3.18z"/>
    <path class="fil3" d="M5101.96 3197.06c-14.63,5.65 -31.54,8.73 -50.74,9.25 -98.72,2.72 -188.68,3.13 -270.07,1.25 -22.75,-0.42 -43.62,-12.52 -55.52,-31.73 -123.58,-198.48 -255.15,-404.67 -390.52,-612.19 -97.85,-149.96 -198.78,-302.29 -302.81,-457.03 -13.98,-20.66 -22.54,-39.44 -25.46,-56.14 -1.46,-7.51 1.46,-15.03 7.3,-19.62 284.05,-223.95 443.51,-511.34 478.16,-862.18 20.25,-204.95 -5.85,-399.47 -78.06,-583.34 -89.96,-228.75 -253.59,-411.78 -463.13,-564.98 -5.63,-4.18 -2.71,-13.36 4.38,-13.15 62.82,1.05 146.52,-1.04 251.08,-6.26 92.55,-4.63 151.15,4.53 179.75,100.92l153.3 661.94c34.5,158.77 74.42,344.25 124.4,572.33 8.69,39.64 24.8,109.56 47.94,207.96 20.94,89.06 47.65,201.46 79.83,335.86 2.72,11.06 6.05,18.99 10.02,23.37 0.66,0.73 1.38,1.35 2.14,1.88m2.42 10.47l295.58 1281.38"/>
    <path class="fil1" d="M2010.53 295.64c147.14,127.1 248.36,265.06 303.67,414.29 156.12,419.5 35.27,863.01 -300.34,1152.91 -223.95,193.26 -485.88,288.02 -786.21,284.26 -197.23,-2.71 -372.76,-2.08 -526.58,1.88 -10.86,0.41 -19.41,9.18 -19.41,20.03l1.25 940.45c0,1.88 -0.21,3.96 -0.63,5.85 -17.32,64.07 -61.36,95.17 -132.32,93.5 -17.74,-0.41 -147.98,0.42 -390.71,2.72 -108.53,1.04 -160.5,-33.81 -159.25,-141.09 1.88,-161.12 2.71,-400.93 2.71,-719.21 0,-103.31 49.46,-247.32 108.11,-349.59 159.45,-278 457.7,-513.85 794.98,-513.01 121.68,0.21 246.07,-1.25 372.97,-4.38 243.14,-6.05 433.49,-163.21 438.92,-410.74 3.13,-136.71 -57.4,-250.66 -181.58,-342.28 -33.18,-24.42 -94.96,-48.21 -185.54,-71.17 73.67,-6.05 145.68,-11.06 215.6,-15.44 232.29,-14.41 380.27,-130.87 444.35,-348.97z"/>
   </g>
   <path class="fil0" d="M0.36 4587.14l0 -671.36 612.61 0 0 75.53 -537.08 0 0 221.92 431.72 0 0 76.46 -431.72 0 0 221.92 537.08 0 0 75.53 -612.61 0zm698.02 0l0 -671.36 103.5 0 278.8 331.95 278.8 -331.95 103.5 0 0 671.36 -75.53 0 0 -585.57 -306.77 364.58 -306.77 -364.58 0 585.57 -75.53 0zm880.78 0l0 -671.36 530.56 0c20.51,0 39.32,4.97 56.41,14.92 17.1,9.95 30.62,23.47 40.56,40.56 9.95,17.09 14.92,35.9 14.92,56.41l0 142.66c0,8.7 -1.09,17.25 -3.26,25.64 -2.18,8.39 -5.13,16.32 -8.86,23.78 13.68,20.51 23.93,38.23 30.77,53.15 6.84,14.92 10.26,30.15 10.26,45.69l0 156.65c0,20.51 -4.97,39.32 -14.92,56.41 -9.95,17.1 -23.47,30.62 -40.56,40.56 -17.09,9.95 -35.9,14.92 -56.41,14.92l-559.46 0zm111.89 -75.53l447.57 0c9.95,0 18.49,-3.57 25.64,-10.72 7.15,-7.15 10.72,-15.7 10.72,-25.64l0 -156.65c0,-9.95 -3.57,-18.49 -10.72,-25.64 -7.15,-7.15 -15.7,-10.72 -25.64,-10.72l-447.57 0c-9.95,0 -18.49,3.57 -25.64,10.72 -7.15,7.15 -10.72,15.7 -10.72,25.64l0 156.65c0,9.95 3.57,18.49 10.72,25.64 7.15,7.15 15.7,10.72 25.64,10.72zm0 -304.91l418.66 0c9.95,0 18.34,-3.57 25.18,-10.72 6.84,-7.15 10.26,-15.7 10.26,-25.64l0 -142.66c0,-9.95 -3.42,-18.49 -10.26,-25.64 -6.84,-7.15 -15.23,-10.72 -25.18,-10.72l-418.66 0c-9.95,0 -18.49,3.57 -25.64,10.72 -7.15,7.15 -10.72,15.7 -10.72,25.64l0 142.66c0,9.95 3.57,18.49 10.72,25.64 7.15,7.15 15.7,10.72 25.64,10.72zm675.64 380.44l0 -559.46c0,-20.51 4.97,-39.32 14.92,-56.41 9.95,-17.1 23.47,-30.62 40.56,-40.56 17.1,-9.95 35.9,-14.92 56.41,-14.92l447.57 0c20.51,0 39.32,4.97 56.41,14.92 17.09,9.95 30.61,23.47 40.56,40.56 9.95,17.09 14.92,35.9 14.92,56.41l0 559.46 -75.53 0 0 -245.23 -520.3 0 0 245.23 -75.53 0zm75.53 -320.76l520.3 0 0 -238.7c0,-9.95 -3.57,-18.49 -10.72,-25.64 -7.15,-7.15 -15.7,-10.72 -25.64,-10.72l-447.57 0c-9.95,0 -18.49,3.57 -25.64,10.72 -7.15,7.15 -10.72,15.7 -10.72,25.64l0 238.7zm715.74 320.76l0 -672.29 75.53 0 0 596.76 595.83 0 0 75.53 -671.36 0zm739.98 0l0 -559.46c0,-20.51 4.97,-39.32 14.92,-56.41 9.95,-17.1 23.47,-30.62 40.56,-40.56 17.1,-9.95 35.9,-14.92 56.41,-14.92l447.57 0c20.51,0 39.32,4.97 56.41,14.92 17.09,9.95 30.61,23.47 40.56,40.56 9.95,17.09 14.92,35.9 14.92,56.41l0 559.46 -75.53 0 0 -245.23 -520.3 0 0 245.23 -75.53 0zm75.53 -320.76l520.3 0 0 -238.7c0,-9.95 -3.57,-18.49 -10.72,-25.64 -7.15,-7.15 -15.7,-10.72 -25.64,-10.72l-447.57 0c-9.95,0 -18.49,3.57 -25.64,10.72 -7.15,7.15 -10.72,15.7 -10.72,25.64l0 238.7zm826.7 320.76c-20.51,0 -39.32,-4.97 -56.41,-14.92 -17.1,-9.95 -30.61,-23.47 -40.56,-40.56 -9.95,-17.09 -14.92,-35.9 -14.92,-56.41l0 -447.57c0,-20.51 4.97,-39.32 14.92,-56.41 9.95,-17.1 23.47,-30.62 40.56,-40.56 17.09,-9.95 35.9,-14.92 56.41,-14.92l447.57 0c20.51,0 39.32,4.97 56.41,14.92 17.1,9.95 30.62,23.47 40.56,40.56 9.95,17.09 14.92,35.9 14.92,56.41l0 27.04 -75.53 0 0 -27.04c0,-9.95 -3.57,-18.49 -10.72,-25.64 -7.15,-7.15 -15.7,-10.72 -25.64,-10.72l-447.57 0c-9.95,0 -18.49,3.57 -25.64,10.72 -7.15,7.15 -10.72,15.7 -10.72,25.64l0 447.57c0,9.95 3.57,18.49 10.72,25.64 7.15,7.15 15.7,10.72 25.64,10.72l447.57 0c9.95,0 18.49,-3.57 25.64,-10.72 7.15,-7.15 10.72,-15.7 10.72,-25.64l0 -165.97 -165.98 0 0 -76.46 241.5 0 0 242.43c0,20.51 -4.97,39.32 -14.92,56.41 -9.95,17.1 -23.47,30.62 -40.56,40.56 -17.09,9.95 -35.9,14.92 -56.41,14.92l-447.57 0zm676.58 0l0 -671.36 612.61 0 0 75.53 -537.08 0 0 221.92 431.72 0 0 76.46 -431.72 0 0 221.92 537.08 0 0 75.53 -612.61 0zm725.06 0l0 -671.36 103.5 0 492.33 585.57 0 -585.57 75.53 0 0 671.36 -103.5 0 -492.33 -585.57 0 585.57 -75.53 0zm895.7 0c-20.51,0 -39.32,-4.97 -56.41,-14.92 -17.1,-9.95 -30.61,-23.47 -40.56,-40.56 -9.95,-17.09 -14.92,-35.9 -14.92,-56.41l0 -26.11 75.53 0 0 26.11c0,9.95 3.57,18.49 10.72,25.64 7.15,7.15 15.7,10.72 25.64,10.72l447.57 0c9.95,0 18.49,-3.57 25.64,-10.72 7.15,-7.15 10.72,-15.7 10.72,-25.64l0 -150.12c0,-9.95 -3.57,-18.34 -10.72,-25.18 -7.15,-6.84 -15.7,-10.26 -25.64,-10.26l-447.57 0c-20.51,0 -39.32,-5.13 -56.41,-15.39 -17.1,-10.26 -30.61,-23.78 -40.56,-40.56 -9.95,-16.78 -14.92,-35.43 -14.92,-55.95l0 -150.12c0,-20.51 4.97,-39.32 14.92,-56.41 9.95,-17.1 23.47,-30.62 40.56,-40.56 17.1,-9.95 35.9,-14.92 56.41,-14.92l447.57 0c20.51,0 39.32,4.97 56.41,14.92 17.09,9.95 30.61,23.47 40.56,40.56 9.95,17.09 14.92,35.9 14.92,56.41l0 26.11 -75.53 0 0 -26.11c0,-9.95 -3.57,-18.49 -10.72,-25.64 -7.15,-7.15 -15.7,-10.72 -25.64,-10.72l-447.57 0c-9.95,0 -18.49,3.57 -25.64,10.72 -7.15,7.15 -10.72,15.7 -10.72,25.64l0 150.12c0,9.95 3.57,18.34 10.72,25.18 7.15,6.84 15.7,10.26 25.64,10.26l447.57 0c20.51,0 39.32,5.13 56.41,15.39 17.09,10.26 30.61,23.78 40.56,40.56 9.95,16.78 14.92,35.43 14.92,55.95l0 150.12c0,20.51 -4.97,39.32 -14.92,56.41 -9.95,17.1 -23.47,30.62 -40.56,40.56 -17.1,9.95 -35.9,14.92 -56.41,14.92l-447.57 0z"/>
  </g>
 </g>
</svg>
