<svg width="1581" height="830" viewBox="0 0 1581 830" fill="none" xmlns="http://www.w3.org/2000/svg">
<g clip-path="url(#clip0_6048_18)">
<path d="M80.2291 476.176C99.442 488.282 120.962 497.322 137.949 506.989C146.469 511.829 156.042 516.683 166.682 521.536C177.949 526.682 194.909 535.296 217.576 547.389C224.816 551.255 234.895 555.669 240.055 558.309C273.242 575.229 306.629 592.176 340.242 609.15C368.148 623.243 405.975 643.109 453.708 668.723C466.014 675.322 478.681 681.216 491.734 686.43C496.227 688.23 500.134 690.083 503.454 691.99C504.534 692.603 505.774 692.91 507.015 692.856C528.468 692.03 553.828 690.964 583.108 689.643C682.134 685.203 735.934 682.763 744.534 682.337C755.121 681.803 764.721 681.616 775.815 680.911C787.134 680.203 795.508 680.324 806.801 679.497C808.521 679.377 812.655 679.177 819.201 678.924C860.108 677.311 901.588 674.964 947.335 673.217C962.335 672.644 979.508 671.817 998.855 670.764C1025.07 669.324 1049.88 668.257 1073.31 667.577C1086.67 667.191 1099.64 666.671 1112.23 666.031C1122.45 665.51 1135.4 664.804 1151.1 663.937C1156.12 663.657 1161.2 663.39 1166.33 663.151C1232.53 660.124 1271.69 658.337 1283.79 657.804C1318.6 656.27 1338.15 655.377 1342.44 655.15C1376.08 653.35 1410.89 652.55 1444.56 650.364C1451.91 649.884 1457.61 649.617 1461.67 649.563C1469.75 649.457 1475.55 648.564 1484.48 648.124C1495.12 647.604 1501.96 647.11 1505.01 646.67C1505.43 646.604 1505.69 646.484 1505.81 646.284C1506.05 645.857 1505.91 645.324 1505.48 645.083C1500.03 641.963 1490.59 636.737 1477.16 629.39C1469.71 625.31 1459.99 620.657 1448.01 615.417C1429.57 607.35 1411.45 598.897 1393.65 590.057C1367.59 577.11 1346.8 566.457 1323.39 556.91C1323.11 556.791 1322.8 557.003 1322.8 557.31V598.817C1322.8 599.324 1323.09 599.804 1323.56 600.017C1335.4 605.617 1347.2 610.87 1358.97 615.764C1364.35 618.004 1366.03 620.417 1368.71 625.164C1368.93 625.564 1369 626.018 1368.89 626.457C1368.35 628.79 1367.23 631.071 1365.51 633.271C1364.75 634.258 1363.59 634.857 1362.35 634.938C1360.76 635.031 1356.92 635.284 1350.86 635.684C1331.75 636.951 1305.6 638.138 1272.44 639.231C1269.88 639.324 1266.76 639.444 1263.1 639.605C1240.62 640.578 1222.18 641.418 1207.79 642.125C1191.71 642.912 1162.71 644.152 1120.78 645.845C1056.58 648.445 952.323 652.845 808.016 659.045C797.083 659.512 789.896 660.071 776.416 660.565C753.203 661.432 687.656 664.218 579.776 668.924C560.91 669.751 541.35 670.351 521.096 670.724C516.47 670.817 512.376 670.111 508.816 668.604C495.51 663.004 482.03 656.684 468.377 649.657C439.631 634.844 407.564 618.418 377.604 601.724C358.644 591.164 336.351 581.311 319.724 572.938C300.897 563.444 287.63 557.884 270.098 548.511C246.284 535.764 218.951 522.751 198.925 513.151C196.164 511.831 194.258 509.845 193.204 507.191C192.591 505.672 193.338 503.938 194.871 503.338C195.045 503.272 196.125 503.112 198.111 502.885C205.485 502.032 215.031 501.618 226.778 501.646C241.005 501.686 255.125 501.366 269.111 500.686C271.124 500.592 273.124 501.232 275.111 502.605C279.671 505.765 284.124 509.592 288.484 514.059C311.884 538.085 347.27 549.112 379.324 541.446C403.337 535.699 422.03 522.792 435.377 502.712C439.057 497.179 444.603 490.059 451.79 489.846C464.043 489.485 482.817 489.899 499.51 488.726C504.31 488.392 508.937 488.246 513.377 488.272C525.83 488.365 540.643 487.072 556.15 486.566C603.083 485.019 641.07 483.312 670.11 481.432C683.91 480.539 704.136 479.459 730.776 478.205C733.776 478.059 776.736 476.446 859.643 473.352C860.056 473.339 860.376 473.005 860.376 472.592V444.219C860.376 443.846 860.07 443.539 859.683 443.539C844.643 443.539 831.497 443.992 820.23 444.912C810.417 445.698 802.91 445.286 794.297 446.165C791.417 446.458 787.963 446.698 783.937 446.885C775.097 447.272 749.617 448.325 707.51 450.071C683.843 451.045 660.243 452.112 636.696 453.244C636.67 453.244 633.389 453.365 626.843 453.592C619.923 453.832 613.67 454.125 608.11 454.459C586.27 455.778 551.936 457.272 505.123 458.912C494.977 459.272 488.977 459.525 487.123 459.645C478.723 460.245 472.75 460.445 469.217 460.232C469.134 460.227 469.051 460.22 468.968 460.213C470.717 450.3 471.304 440.104 470.776 429.825C484.108 429.658 493.681 430.065 504.643 429.058C505.696 428.965 518.71 428.365 543.67 427.271C543.95 427.258 551.577 426.871 566.55 426.111C576.977 425.577 587.671 425.484 597.07 425.018C616.443 424.044 635.683 423.178 654.764 422.405C658.75 422.245 663.084 422.071 667.79 421.871C759.536 418.071 813.977 415.697 831.11 414.751C848.963 413.764 858.577 413.231 859.95 413.138C860.617 413.097 861.15 412.578 861.19 411.911C862.083 398.391 861.563 384.952 862.39 370.831C862.751 364.498 863.003 357.324 863.124 349.298C863.177 345.551 864.204 341.765 864.391 338.058C864.47 336.751 863.79 335.512 862.657 334.845C856.098 330.991 849.777 327.618 845.057 322.565C834.151 310.858 828.897 296.604 830.164 279.605C831.858 256.791 835.231 234.631 840.271 213.151C843.178 200.712 843.924 187.645 842.524 173.925C841.618 165.058 838.377 157.378 832.818 150.911C828.538 145.938 824.364 140.218 820.297 133.751C810.631 118.445 810.551 102.924 811.058 83.9247C811.377 72.058 812.964 62.4446 818.298 51.8316C828.404 31.738 849.311 12.1382 870.204 3.64517C877.498 0.671561 886.138 -0.488437 896.124 0.191585C901.951 0.591675 906.804 1.56483 910.698 3.12492C917.644 5.89849 923.178 7.97816 927.298 9.37782C963.991 21.8044 994.298 32.0582 1018.22 40.1511C1036.07 46.1914 1045.7 49.4311 1047.11 49.8715C1059.96 53.9384 1069.58 57.2051 1075.95 59.6717C1090.54 65.3251 1104.86 68.4981 1119.83 74.3384C1123.08 75.6047 1128.91 77.6586 1137.3 80.485C1223.5 109.471 1267.34 124.204 1268.84 124.698C1294.86 133.245 1314.36 140.565 1342.43 149.458C1345.7 150.485 1349.5 152.351 1353.83 155.032C1374.94 168.059 1389.96 191.552 1393.5 216.725C1394.38 222.925 1394.04 230.605 1392.48 239.792C1390.78 249.832 1388.35 259.458 1385.2 268.658C1384.23 271.512 1382.38 274.778 1379.64 278.472C1379.31 278.911 1375.23 284.258 1367.39 294.485C1356.75 308.378 1355.42 322.618 1356.43 339.592C1357.15 351.765 1358.68 375.098 1361.04 409.591C1361.38 414.418 1361.76 418.671 1362.22 422.338C1362.88 427.765 1362.98 431.978 1362.5 435.004C1360.66 446.617 1356.46 456.204 1349.91 463.791C1342.19 472.724 1332.52 478.591 1320.9 481.391C1320.24 481.551 1319.83 482.177 1319.94 482.844C1321.3 490.751 1320.78 501.537 1320.75 522.084C1320.75 522.737 1321.16 523.324 1321.79 523.55C1337.1 529.07 1351.91 535.417 1366.24 542.577C1392.95 555.937 1420.51 568.963 1453.63 584.323C1473.15 593.363 1501.18 607.523 1515.26 614.123C1534.54 623.15 1552.26 631.617 1568.4 639.497C1574.44 642.443 1578.06 647.416 1579.24 654.417C1580.14 659.683 1580.59 664.19 1580.6 667.937C1580.72 727.87 1580.76 758.07 1580.74 758.51C1580.48 763.79 1579.55 768.084 1577.95 771.377C1575.86 775.684 1569.82 776.524 1564.79 776.977C1559.71 777.444 1544.67 778.23 1519.68 779.337C1487.87 780.75 1467.15 782.15 1435.62 783.577C1422.04 784.19 1409.04 784.816 1396.63 785.47C1312.67 789.83 1231.78 793.83 1153.94 797.47C1141.15 798.07 1130.94 799.083 1120.79 798.977C1115.92 798.923 1109.96 799.844 1105.11 800.017C1082.27 800.856 1064.39 801.63 1051.46 802.35C1026.86 803.723 985.045 805.763 926.032 808.496C920.099 808.763 914.045 809.549 908.352 809.496C906.045 809.483 899.539 809.763 888.859 810.336C831.578 813.443 766.685 816.27 703.779 819.79C702.059 819.883 658.498 822.016 573.085 826.19C557.872 826.924 542.912 827.604 528.179 828.23C514.766 828.803 501.632 829.924 487.912 829.977C486.166 829.99 484.432 829.656 482.805 829.003C473.005 825.11 464.499 820.15 453.472 814.203C443.405 808.776 432.259 803.91 422.299 798.43C414.112 793.91 408.498 790.87 405.458 789.297C378.658 775.39 353.445 762.137 329.832 749.537C323.005 745.897 313.459 741.417 305.619 737.27C266.418 716.563 237.752 701.577 219.605 692.338C182.085 673.231 150.405 655.964 109.152 634.604C93.4585 626.484 74.8986 616.058 56.6053 606.778C53.3386 605.111 42.8187 599.404 25.0589 589.658C17.2717 585.391 10.6451 580.951 5.17916 576.351C0.739214 572.604 -0.0609666 561.004 0.0591926 555.258C0.685737 524.657 0.685737 497.551 0.0321238 473.938C-0.114444 468.538 0.139079 457.911 4.43246 454.111C6.77886 452.03 9.67259 450.937 13.1123 450.831C27.5921 450.364 47.4587 449.831 72.6987 449.218C73.3253 449.204 77.8055 449.044 86.1123 448.738C120.206 447.471 154.765 446.631 189.779 446.191C201.672 446.031 219.245 444.658 233.819 444.444C237.13 444.392 240.4 444.329 243.628 444.255C244.1 453.813 245.579 463.216 248.099 472.297C216.547 473.243 189.978 473.67 168.393 473.578C155.233 473.524 140.606 473.845 124.499 474.538C115.219 474.925 100.58 475.098 80.5658 475.031C79.9393 475.031 79.699 475.844 80.2324 476.178L80.2291 476.176ZM283.388 428.363C285.957 413.123 290.073 398.407 295.723 384.216C307.109 355.589 322.203 331.376 342.096 300.216C346.136 293.882 351.389 285.776 357.749 281.95C358.322 281.603 359.029 281.496 359.682 281.67C364.789 283.003 368.429 287.776 371.203 292.51C384.936 315.897 396.216 336.723 408.175 356.909C414.948 368.322 420.775 381.163 425.642 395.416C427.836 401.863 429.692 408.279 430.942 414.667H430.941L430.945 414.685C431.751 418.808 432.305 422.918 432.535 427.016C433.162 438.241 431.826 449.666 428.539 460.49C427.554 463.529 426.055 467.605 424.382 471.571C419.09 483.301 411.271 493.889 400.935 502.15C375.135 522.776 341.336 522.524 314.829 503.443C304.603 496.086 296.578 486.353 290.777 474.257C289.375 471.277 288.169 468.213 287.156 465.079C283.444 453.598 282.245 441.112 283.389 428.364L283.388 428.363ZM1251.19 437.242C1251.39 436.802 1251.51 436.362 1251.55 435.922C1253.36 411.416 1255.59 385.176 1258.2 361.683C1259.2 352.656 1259.53 343.482 1259.2 334.136C1258.79 322.602 1256.57 314.202 1251.32 304.056C1251.15 303.722 1247.91 298.189 1241.59 287.482C1230 267.829 1229.51 245.015 1232.68 222.856C1236.38 196.989 1252.21 174.855 1273.16 160.016C1273.82 159.549 1273.65 158.536 1272.89 158.282C1254.59 152.202 1217.74 139.762 1162.34 120.962C1157.11 119.189 1150.6 117.776 1146.36 116.002C1132.94 110.402 1122.59 106.468 1115.34 104.188C1102.31 100.095 1094.5 97.1482 1083.36 93.9481C1071.62 90.5751 1058.87 86.3484 1045.12 81.268C1037.08 78.2944 1029.87 75.841 1023.47 73.8815C1007.47 68.9748 991.348 62.8685 975.628 57.5082C955.589 50.6677 941.895 45.9346 934.535 43.3083C925.535 40.095 916.215 37.6951 906.108 33.922C903.495 32.935 899.495 32.3084 894.095 32.0556C880.988 31.429 869.841 35.3626 860.655 43.8688C854.028 50.0022 849.335 56.4551 846.575 63.2289C843.909 69.7624 842.122 73.2827 841.802 79.2557C841.442 86.042 841.362 93.4688 841.562 101.509C841.855 112.962 847.655 119.495 854.895 127.149C866.668 139.576 872.522 157.935 872.495 174.909C872.481 188.549 872.002 202.722 869.535 217.495C865.655 240.736 862.188 263.122 860.642 285.829C860.001 295.242 864.015 301.536 872.668 304.722C909.829 318.336 948.402 332.056 988.401 345.883C1004.76 351.536 1027.13 359.483 1055.52 369.736C1104.44 387.389 1151.72 402.883 1202.97 421.563C1217.84 426.99 1233.81 431.643 1250 437.723C1250.47 437.896 1250.99 437.696 1251.19 437.243L1251.19 437.242ZM1332.25 444.386C1332.99 442.667 1331.92 427.842 1331.75 425.255C1330.43 404.522 1328.36 380.256 1325.56 352.469C1324.72 344.256 1324.15 335.309 1325.28 327.683C1326.12 322.016 1326.67 318.069 1326.95 315.842C1328.69 301.589 1334.12 288.883 1342.85 277.949C1346.89 272.882 1350.21 268.562 1352.8 265.003C1357.37 258.696 1360.43 250.856 1361.99 241.496C1363.41 232.949 1364.19 222.989 1361.09 214.616C1358.04 206.309 1354.59 196.869 1348.69 191.149C1335.04 177.883 1314.76 171.709 1297.05 179.802C1280.93 187.176 1270.4 199.536 1265.48 216.869C1262.72 226.616 1261.23 234.256 1261.03 239.789C1260.68 249.629 1261.31 260.709 1265.63 268.496C1268.39 273.469 1272.46 280.042 1277.86 288.216C1283.75 297.162 1287.39 307.296 1288.79 318.616C1290.14 329.496 1290.4 338.976 1289.6 347.043C1285.75 386.083 1282.73 418.749 1280.56 445.029C1280.35 447.602 1280.32 450.096 1280.49 452.509C1280.53 453.069 1280.96 453.536 1281.52 453.616L1298.84 455.255C1305.78 456.12 1311.06 456.501 1315.2 456.931C1317.61 457.183 1324.59 456.803 1326.84 456.401C1329.21 455.451 1332.54 457.268 1332.25 444.386V444.386ZM892.655 346.163C892.668 347.843 892.602 365.749 892.455 399.883C892.335 427.602 890.935 455.029 890.988 477.656C890.988 478.216 891.321 478.723 891.828 478.936C896.882 481.082 902.908 483.402 909.882 485.896C962.988 504.936 1024.82 527.656 1095.39 554.069C1145.52 572.829 1187.01 588.309 1219.85 600.51C1230.59 604.496 1242.69 608.496 1256.19 612.51C1259.75 613.563 1264.39 614.176 1270.09 614.336C1278.01 614.563 1285.45 614.723 1292.41 614.83C1292.99 614.843 1293.47 614.376 1293.48 613.79C1293.8 598.763 1292.55 583.79 1292.45 567.323C1292.24 532.536 1292.16 505.55 1292.2 486.363C1292.2 486.07 1291.98 485.816 1291.68 485.777C1283.44 484.737 1272.88 483.483 1266.67 478.71C1260.75 474.163 1255.63 471.39 1247.43 468.63C1240.91 466.443 1196.16 451.07 1113.17 422.51C1108.52 420.91 1102.32 418.057 1096.93 416.19C1068.76 406.47 1041.67 396.924 1015.64 387.577C984.561 376.404 964.201 369.75 934.508 358.884C920.988 353.938 907.428 349.404 893.814 345.297C893.228 345.124 892.654 345.564 892.654 346.164L892.655 346.163ZM29.4427 488.456C29.8824 497.389 30.709 506.682 30.6166 515.336C30.4964 527.056 30.3763 540.496 30.2693 555.643C30.2693 556.336 30.643 556.962 31.2563 557.283C49.1099 566.749 66.9364 578.083 83.3764 586.696C101.403 596.136 111.043 600.829 125.976 609.016C157.75 626.442 191.376 643.922 226.883 661.442C234.137 665.015 243.443 670.522 250.296 674.429C256.629 678.043 262.522 681.229 267.949 683.989C294.55 697.522 315.016 708.096 329.349 715.722C346.349 724.775 366.842 735.282 390.829 747.242C401.456 752.536 430.976 767.562 479.416 792.296C479.869 792.522 480.402 792.19 480.402 791.67C480.335 785.23 480.656 779.31 481.362 773.91C483.775 755.216 481.655 732.63 481.455 716.256C481.442 715.47 480.975 714.763 480.255 714.456C477.815 713.429 474.722 711.976 471.001 710.11C448.055 698.656 422.068 685.403 393.042 670.363C377.788 662.456 362.602 655.109 347.309 647.083C316.975 631.163 302.749 624.31 279.056 610.803C261.335 600.696 239.589 591.029 222.296 582.309C195.775 568.936 169.629 555.976 143.869 543.456C129.095 536.283 117.255 530.35 108.362 525.643C87.6552 514.71 63.9482 503.083 37.2551 490.75C34.8816 489.643 32.5213 488.697 30.1749 487.897C29.8019 487.777 29.4282 488.07 29.4414 488.456L29.4427 488.456ZM512.922 721.682C512.642 721.709 512.442 721.922 512.428 722.189C511.109 746.709 510.695 772.016 511.189 798.122C511.202 798.535 511.536 798.855 511.948 798.855C524.736 798.762 538.148 797.842 548.455 797.575C553.415 797.442 562.295 796.989 575.095 796.202C596.268 794.909 615.935 794.002 634.108 793.469C640.602 793.282 646.388 792.388 652.775 792.348C656.549 792.322 661.228 792.135 666.788 791.802C702.868 789.615 734.975 787.881 763.095 786.615C777.069 785.988 795.294 785.175 817.775 784.188C842.588 783.108 892.921 780.708 968.748 776.988C980.548 776.415 992.334 775.801 1004.12 775.148C1024.88 774.001 1046.64 772.828 1069.4 771.641C1094.24 770.348 1119.27 769.041 1144.45 767.748C1159.48 766.988 1176.85 766.081 1196.59 765.028C1226.04 763.468 1258.72 761.908 1294.64 760.321C1301.03 760.041 1306.68 759.748 1311.59 759.441C1322.05 758.774 1332.08 759.054 1342.32 758.241C1353.69 757.348 1365.6 757.721 1376.76 756.881C1387.32 756.094 1396.96 756.334 1407.89 755.587C1426.67 754.321 1452.04 752.934 1484 751.454C1505.97 750.44 1527.36 749.107 1549.67 748.161C1550.36 748.134 1550.91 747.561 1550.91 746.867V673.761C1550.91 672.934 1550.21 672.281 1549.39 672.321C1476.03 676.094 1420.59 678.855 1383.08 680.628C1374.92 681.015 1368.96 681.321 1365.21 681.534C1357.64 681.961 1351.67 683.014 1344.79 682.96C1344.05 682.96 1340.04 683.147 1332.77 683.52C1316.55 684.36 1300.44 685.173 1284.45 685.987C1240.93 688.174 1217.48 689.333 1214.11 689.454C1191.28 690.267 1170.13 691.6 1145.65 692.48C1118.69 693.453 1091.73 694.587 1064.76 695.88C1051.09 696.533 1005.63 698.706 928.334 702.426C924.454 702.613 920.587 702.879 916.734 703.213C911.921 703.626 908.041 703.906 905.094 704.053C890.121 704.759 875.574 705.413 861.454 706.026C842 706.866 822.107 707.707 801.774 708.573C797.547 708.747 793.987 708.879 791.094 708.96C771.508 709.533 752.174 710.293 733.121 711.226C714.467 712.146 696.241 713.093 678.467 714.053C673.04 714.333 659.894 714.906 639.014 715.746C625.801 716.293 612.654 716.853 599.561 717.453C575.894 718.533 564.454 718.626 548.014 719.773C534.961 720.679 528.361 720.613 512.921 721.679L512.922 721.682Z" fill="#809DBF"/>
<path d="M549.148 72.3095C554.415 65.603 563.709 66.4699 568.802 73.2292C573.028 78.8423 576.575 83.9893 579.415 88.6558C584.241 96.5757 591.854 109.043 602.268 126.056C608.974 137.029 613.962 145.576 617.215 151.696C631.308 178.202 647.068 204.963 648.642 235.616C649.855 259.496 643.575 280.842 629.788 299.642C603.762 335.149 557.068 347.628 517.975 325.069C473.042 299.136 461.869 247.976 477.868 200.989C479.215 197.029 482.562 189.615 487.935 178.749C490.602 173.336 498.108 159.175 510.468 136.255C519.522 119.469 529.242 104.122 539.828 86.3219C543.348 80.4017 546.455 75.7353 549.148 72.3088V72.3095Z" fill="#809DBF"/>
<path fill-rule="evenodd" clip-rule="evenodd" d="M350.088 273.022L350.068 273.036L350.163 273.122L350.088 273.022Z" fill="#809DBF"/>
<path d="M1076.63 217.229C1078.73 236.243 1056.6 235.736 1045.01 231.39C1020.01 222.017 1004.61 216.35 998.789 214.363C967.122 203.603 952.015 197.697 913.135 183.537C908.802 181.963 902.575 178.936 900.068 174.883C895.988 168.27 897.415 161.15 903.309 156.417C907.975 152.657 915.402 152.883 920.882 154.483C924.949 155.657 931.042 158.483 936.002 160.257C976.722 174.857 1000.34 183.216 1006.83 185.35C1013.68 187.603 1023.09 191.056 1035.08 195.71C1041.63 198.256 1051.13 201.496 1063.6 205.43C1069.24 207.203 1075.92 210.923 1076.63 217.229Z" fill="#809DBF"/>
<path d="M1102.53 221.936C1105.89 221.736 1109.28 222.216 1112.71 223.362C1132.91 230.149 1156.8 239.322 1181.64 247.055C1192.49 250.442 1200.57 260.295 1193.72 271.402C1189.76 277.829 1182.55 279.389 1175.84 277.096C1137.32 263.923 1115.83 256.442 1111.36 254.656C1100.31 250.229 1091.68 245.056 1094.35 231.096C1095.07 227.349 1097.32 224.429 1101.12 222.336C1101.55 222.096 1102.03 221.963 1102.53 221.936H1102.53Z" fill="#809DBF"/>
</g>
<defs>
<clipPath id="clip0_6048_18">
<rect width="1580.74" height="829.977" fill="white"/>
</clipPath>
</defs>
</svg>
