<svg width="1293" height="1273" viewBox="0 0 1293 1273" fill="none" xmlns="http://www.w3.org/2000/svg">
<g clip-path="url(#clip0_6048_26)">
<path d="M326.463 973.359C326.076 965.799 327.289 958.959 327.289 951.919C327.289 934.173 328.596 915.199 328.649 896.705C328.663 892.839 330.236 885.332 332.448 881.372C336.702 873.732 342.582 868.478 350.089 865.626C353.356 864.371 361.063 863.745 373.209 863.759C635.595 863.798 906.596 863.798 1186.18 863.759C1204.34 863.759 1219.56 876.625 1219.49 895.318C1219.38 931.998 1219.36 961.718 1219.41 984.465C1219.41 985.065 1219.65 985.639 1220.06 986.065C1226.26 992.412 1234.9 1001.68 1245.98 1013.87C1252.92 1021.49 1265.93 1020.67 1274.69 1024.92C1285.34 1030.08 1292.85 1041.07 1292.32 1053.45C1291.99 1060.87 1292.25 1068.44 1291.86 1075.28C1291.06 1089.73 1290.99 1093.8 1290.62 1108.57C1290.55 1111.71 1290.26 1115.99 1289.75 1121.43C1289.57 1123.41 1289.46 1127.71 1289.45 1134.32C1289.45 1138.73 1288.38 1147.49 1286.43 1152.29C1282.34 1162.31 1271.63 1170.53 1260.17 1170.52C1230.5 1170.49 1208.34 1170.48 1193.69 1170.48C1193.31 1170.48 1193.02 1170.77 1193.02 1171.15C1193.06 1213.11 1193.09 1234.51 1193.1 1235.32C1193.13 1236.51 1192.87 1239.08 1192.34 1243.03C1190.53 1256.24 1182 1265.8 1169.33 1270.16C1164.35 1271.88 1156.69 1272.33 1150.85 1272.31C1124.19 1272.17 1059.34 1272.15 956.316 1272.24C947.289 1272.25 941.168 1271.64 937.942 1270.4C914.356 1261.41 913.796 1229.09 937.408 1219.65C940.194 1218.55 944.567 1217.99 950.554 1217.99C1041.29 1218 1104.03 1218.01 1138.77 1218.02C1139.35 1218.02 1139.83 1217.56 1139.83 1216.97V1171.57C1139.83 1171.02 1139.39 1170.59 1138.85 1170.59H244.928C244.781 1170.59 244.662 1170.71 244.662 1170.85C244.701 1200.02 244.742 1221.07 244.808 1233.98C244.902 1251.8 235.836 1265.85 218.209 1270.65C214.196 1271.74 207.516 1272.29 198.182 1272.29C138.503 1272.3 100.728 1272.3 84.8619 1272.32C66.6757 1272.33 51.7413 1267.33 44.0893 1249.76C42.1816 1245.4 41.716 1241.48 41.716 1236.19C41.7297 904.6 41.7296 603.093 41.7023 331.666C41.7023 324.906 42.2618 319.866 43.3829 316.52C49.3289 298.774 64.864 291.599 83.0756 291.439C94.7289 291.333 106.022 291.359 116.942 291.519C117.329 291.519 117.634 291.212 117.634 290.838V206.972C117.634 206.585 117.315 206.28 116.928 206.28C77.8477 206.346 48.2743 206.36 28.2079 206.293C16.447 206.254 7.96731 201.201 2.76874 191.12C-3.20463 179.547 0.808272 164.787 11.7024 157.814C16.8892 154.494 23.0484 152.854 30.1957 152.868C53.0757 152.921 124.795 152.907 245.356 152.829C256.063 152.815 262.956 153.482 266.01 154.803C273.329 157.976 278.449 163.549 281.343 171.51C286.303 185.149 278.103 199.643 265.09 204.669C261.717 205.976 257.037 206.55 251.05 206.403C247.023 206.309 220.089 206.284 170.236 206.35C169.917 206.35 169.649 206.616 169.649 206.937V290.243C169.649 290.883 170.183 291.417 170.823 291.404C189.45 291.376 199.796 291.364 201.864 291.351C220.144 291.257 236.491 297.778 242.944 315.765C244.157 319.165 244.771 325.831 244.771 335.751C244.785 554.085 244.691 671.831 244.478 688.992C244.464 690.205 244.425 691.606 244.345 693.179C244.317 693.846 245.131 694.206 245.611 693.724L335.092 603.952C335.385 603.658 335.385 603.179 335.092 602.886L314.693 582.553C314.626 582.486 314.573 582.406 314.519 582.326C308.719 572.98 307.639 563.993 311.306 555.367C312.466 552.647 315.878 548.46 321.56 542.806C374.906 489.726 428.148 436.339 481.28 382.646C481.881 382.045 481.867 381.073 481.266 380.472C461.906 361.206 445.027 344.446 430.64 330.192C426.627 326.219 423.933 322.685 422.56 319.58C415.213 303.006 423.186 290.193 434.894 279.032C440.773 273.419 463 251.312 501.56 212.699C537.065 177.139 577.652 136.499 623.306 90.7783C625.053 89.0311 628.094 86.8848 632.4 84.351C647.374 75.5915 661.08 80.9779 672.253 92.2575C689.121 109.325 705.679 125.885 721.907 141.925C722.32 142.338 723.001 142.326 723.413 141.911C754.493 110.684 796.8 68.2055 850.333 14.4707C855.853 8.93753 860.054 5.43138 862.934 3.95027C877.987 -3.72921 895.827 0.123247 906.88 12.6569C908.547 14.5646 911.773 17.8966 916.561 22.6843C953.96 60.0702 973.841 79.9253 976.201 82.2301C985.721 91.4827 988.987 103.562 983.52 115.963C982.213 118.937 979.014 122.977 973.905 128.07C953.105 148.829 938.466 163.417 929.998 171.817C912.386 189.258 898.946 203.323 882.411 218.884C878.611 222.443 873.798 228.136 869.625 232.323C818.612 283.337 758.612 343.029 689.612 411.417C626.452 474.017 560.612 539.83 492.066 608.871C486.226 614.75 470.266 631.058 444.199 657.79C437.412 664.736 433.426 668.604 432.213 669.377C426.852 672.803 421.613 674.537 416.492 674.578C412.853 674.605 409.026 673.725 405.039 671.938C402.225 670.672 399.093 668.299 395.639 664.818C385.465 654.539 378.613 647.671 375.053 644.218C374.906 644.057 374.64 644.057 374.493 644.218L245.386 773.752C244.918 774.217 244.652 774.859 244.652 775.538V973.897C244.652 974.138 244.838 974.324 245.078 974.324H325.546C326.08 974.324 326.493 973.884 326.465 973.363L326.463 973.359ZM879.556 61.5748C879.382 61.4006 879.089 61.4006 878.917 61.5748L374.599 565.907C374.424 566.081 374.424 566.374 374.599 566.546L416.905 608.853C417.079 609.027 417.373 609.027 417.545 608.853L921.037 103.694C921.212 103.519 921.212 103.226 921.037 103.054L879.558 61.5748H879.556ZM521.01 343.241C521.25 343.481 521.649 343.481 521.89 343.241L684.85 180.281C685.104 180.027 685.104 179.628 684.85 179.387L648.863 144.507C648.622 144.267 648.223 144.267 647.982 144.507L484.131 305.467C483.876 305.708 483.876 306.107 484.131 306.36L521.01 343.241ZM191.823 346.013C191.823 345.412 191.33 344.919 190.729 344.919H95.3158C94.7152 344.919 94.2221 345.412 94.2221 346.013V1217.03C94.2221 1217.63 94.7152 1218.12 95.3158 1218.12H190.729C191.33 1218.12 191.823 1217.63 191.823 1217.03V346.013ZM1166.93 916.359C1166.94 916.105 1166.73 915.891 1166.48 915.891H379.997C379.756 915.891 379.556 916.091 379.543 916.332L378.302 973.852C378.289 974.107 378.502 974.32 378.756 974.32H1165.24C1165.48 974.32 1165.68 974.12 1165.69 973.88L1166.93 916.359ZM244.636 1027.32V1117.01C244.636 1117.39 244.93 1117.68 245.303 1117.68H1237.06C1237.39 1117.68 1237.68 1117.41 1237.69 1117.08L1240.19 1070.58C1240.22 1069.9 1239.78 1069.3 1239.14 1069.14C1224.98 1065.45 1213.04 1058.24 1203.3 1047.53C1200.97 1044.96 1194.98 1038.28 1185.34 1027.52C1184.77 1026.89 1183.97 1026.53 1183.13 1026.53H245.411C244.985 1026.53 244.638 1026.88 244.638 1027.32L244.636 1027.32Z" fill="#809DBF"/>
<path d="M1011.7 419.828C1000.34 419.349 982.422 421.162 969.836 418.095C941.143 411.108 919.662 389.734 913.248 361.041C911.941 355.201 911.435 346.935 911.714 336.228C911.82 332.482 911.82 324.176 911.728 311.308C911.689 305.667 912.049 301.494 912.808 298.815C915.301 289.948 920.889 283.429 929.887 280.388C946.688 274.722 964.899 285.855 964.927 303.975C964.954 329.015 964.954 343.468 964.927 347.322C964.899 350.936 966.101 354.176 968.513 357.015C973.847 363.295 979.981 365.988 988.513 365.428C990.845 365.281 998.046 365.389 1010.11 365.761C1037.83 366.627 1060.17 379.147 1074.45 402.507C1080.94 413.133 1084.71 424.866 1085.78 437.733C1086.11 441.693 1085.25 445.946 1085.22 449.319C1085.07 467.76 1085.06 479.572 1085.18 484.733C1085.34 491.454 1084.81 496.439 1083.57 499.679C1080.49 507.785 1073.1 514.946 1064.45 516.198C1055.09 517.558 1046.97 515.838 1039.98 508.799C1033.39 502.158 1031.57 494.799 1031.54 484.878C1031.5 470.198 1031.57 462.011 1031.71 460.344C1032.43 452.358 1032.55 445.277 1032.09 439.092C1032.03 438.411 1031.9 437.733 1031.67 437.093C1028.65 428.093 1022.57 422.413 1013.44 420.079C1012.86 419.932 1012.29 419.852 1011.7 419.826V419.828Z" fill="#809DBF"/>
<path d="M810.648 573.068C780.422 569 756.835 547.321 749.222 517.84C747.769 512.24 747.115 504.293 747.262 493.987C747.409 482.855 747.422 471.548 747.328 460.055C747.076 429.002 789.956 423.722 798.968 451.747C799.741 454.16 800.087 458.134 800.009 463.667C799.915 469.853 799.928 482.013 800.022 500.147C800.036 502.16 800.715 504.48 802.089 507.106C805.221 513.121 810.194 517.427 816.982 520.027C819.742 521.08 823.501 521.52 828.261 521.321C837.422 520.961 847.436 521.481 858.302 522.907C888.488 526.854 912.65 550.107 919.93 579.16C921.09 583.813 921.622 590 921.53 597.706C921.384 610.187 921.384 622.079 921.544 633.386C921.691 643.159 920.971 649.946 919.384 653.76C914.53 665.532 901.771 672.292 888.825 669.093C879.744 666.839 873.305 660.494 869.877 651.921C868.531 648.575 867.903 643.668 867.997 637.213C868.21 621.561 868.277 607.374 868.197 594.668C868.144 586.615 858.997 578.321 852.544 575.64C849.238 574.281 844.477 573.666 838.263 573.801C831.744 573.948 819.371 574.241 810.65 573.068H810.648Z" fill="#809DBF"/>
<path d="M710.821 733.347C708.274 726.493 703.82 721.666 697.462 718.866C693.768 717.227 689.062 716.534 683.316 716.759C670.516 717.252 655.689 717.227 642.089 713.372C621.569 707.559 606.182 694.945 595.916 675.532C591.53 667.252 589.143 657.947 588.73 647.64C588.597 644.134 588.611 628.481 588.757 600.653C588.785 595.226 588.838 592.12 591.358 587.587C594.811 581.359 599.865 577.294 606.517 575.374C622.451 570.788 636.93 579.747 640.903 595.801C641.023 596.294 641.089 596.787 641.089 597.294C641.117 606.333 641.117 621.561 641.089 642.973C641.089 645.227 641.915 647.653 643.568 650.267C648.648 658.254 656.063 662.228 665.836 662.161C681.543 662.067 692.596 661.081 703.969 663.695C726.049 668.761 742.942 681.721 754.636 702.576C758.195 708.909 760.756 715.389 762.316 721.989C763.449 726.816 764.022 733.736 764.035 742.762C764.049 765.522 763.955 780.001 763.756 786.201C763.302 800.042 753.529 811.468 739.076 812.415C723.742 813.429 711.422 801.374 711.422 785.949C711.422 763.268 711.408 746.802 711.394 736.548C711.394 735.454 711.195 734.374 710.821 733.349V733.347Z" fill="#809DBF"/>
</g>
<defs>
<clipPath id="clip0_6048_26">
<rect width="1292.34" height="1272.32" fill="white"/>
</clipPath>
</defs>
</svg>
