<svg width="39" height="39" viewBox="0 0 39 39" fill="none" xmlns="http://www.w3.org/2000/svg">
<path d="M27.1999 3.7998H11.1999C6.78167 3.7998 3.19995 7.38153 3.19995 11.7998V27.7998C3.19995 32.2181 6.78167 35.7999 11.1999 35.7999H27.1999C31.6182 35.7999 35.1999 32.2181 35.1999 27.7998V11.7998C35.1999 7.38153 31.6182 3.7998 27.1999 3.7998Z" stroke="#F9F9F9" stroke-width="2" stroke-linecap="round" stroke-linejoin="round"/>
<path d="M25.6 18.7921C25.7975 20.1236 25.57 21.4836 24.9501 22.6785C24.3301 23.8734 23.3491 24.8423 22.1466 25.4475C20.9442 26.0528 19.5816 26.2634 18.2525 26.0496C16.9234 25.8357 15.6957 25.2082 14.7438 24.2563C13.7919 23.3044 13.1644 22.0767 12.9506 20.7476C12.7367 19.4185 12.9473 18.0559 13.5526 16.8534C14.1578 15.651 15.1267 14.67 16.3216 14.05C17.5165 13.43 18.8764 13.2026 20.208 13.4C21.5663 13.6015 22.8238 14.2344 23.7947 15.2053C24.7657 16.1763 25.3986 17.4338 25.6 18.7921Z" stroke="#F9F9F9" stroke-width="2" stroke-linecap="round" stroke-linejoin="round"/>
<path d="M28 10.9998H28.016" stroke="#F9F9F9" stroke-width="2" stroke-linecap="round" stroke-linejoin="round"/>
</svg>
