<svg width="512" height="512" viewBox="0 0 512 512" fill="none" xmlns="http://www.w3.org/2000/svg">
<path d="M151.935 180.945C148.163 193.774 139.451 200.624 125.776 201.471C121.66 201.729 117.421 202.023 113.084 202.379L74.1712 202.318C73.8147 202.318 73.532 202.6 73.5198 202.944L73.3231 211.746L73.1146 241.185C73.1146 241.529 72.8809 241.824 72.5493 241.922C56.6132 246.378 44.1171 256.74 34.9143 269.961C34.6931 270.281 34.2018 270.121 34.2018 269.741L33.9805 215.429C33.9192 201.409 33.9066 187.365 33.9435 173.296C33.9557 167.698 35.2584 163.868 41.328 163.831C67.4868 163.696 89.7019 163.647 107.972 163.684C125.051 163.72 139.71 169.479 151.935 180.945V180.945Z" fill="#F9F9F9"/>
<path d="M159.319 188.204C164.084 193.601 167.583 199.302 169.813 205.313C179.003 229.989 171.889 256.077 152.132 273.129C138.948 284.497 123.527 290.07 105.847 289.849C94.2356 289.69 83.9025 289.727 74.8469 289.96C74.2077 289.984 73.7041 290.5 73.7041 291.138L73.778 346.456C73.778 346.567 73.7655 346.69 73.741 346.8C72.7211 350.569 70.1285 352.398 65.9511 352.3C64.9065 352.276 57.2396 352.325 42.9499 352.46C36.5605 352.521 33.5012 350.471 33.575 344.161C33.6855 334.683 33.7346 320.578 33.7346 301.856C33.7346 295.779 36.6467 287.308 40.0993 281.293C49.4865 264.941 67.0445 251.068 86.9003 251.117C94.0636 251.129 101.387 251.043 108.857 250.859C123.171 250.503 134.377 241.259 134.697 226.699C134.837 220.572 132.801 215.221 128.589 210.637C136.404 209.815 142.997 207.294 148.371 203.075C153.151 199.322 156.8 194.364 159.319 188.204V188.204Z" fill="#F9F9F9"/>
<path d="M150.72 164.311C150.511 164.163 150.622 163.844 150.868 163.844C166.887 163.844 191.875 163.82 225.831 163.771C238.386 163.758 250.118 167.465 261.027 174.916C287.624 193.045 296.162 226.555 280.806 254.97C274.541 266.545 265.278 274.487 253.853 280.489C253.509 280.673 253.411 281.103 253.632 281.422C257.207 286.418 260.229 290.849 262.71 294.74C272.993 310.82 283.595 326.863 294.516 342.869C296.518 345.815 297.145 347.926 294.614 350.467C293.373 351.719 291.863 352.345 290.081 352.333C279.946 352.259 268.288 352.259 255.106 352.345C252.624 352.357 250.573 351.216 248.963 348.896C246.617 345.52 244.59 342.427 242.907 339.616C231.556 320.676 221.15 304.265 211.703 290.395C211.162 289.597 210.253 289.118 209.295 289.118H183.595C183.251 289.118 182.968 289.401 182.956 289.757C182.882 320.001 182.907 337.223 183.03 341.421C183.202 347.644 181.617 352.173 174.934 352.247C172.981 352.259 166.126 352.321 154.369 352.419C142.993 352.505 142.01 349.755 142.059 339.739C142.157 321.928 142.133 307.224 141.973 295.612C141.961 294.986 142.317 294.409 142.87 294.127C146.752 292.126 150.253 290.162 153.362 288.223C167.256 279.581 177.047 266.938 182.894 251.3C183.054 250.895 183.435 250.625 183.878 250.613C197.256 250.576 209.836 250.539 221.592 250.527C236.249 250.502 248.976 240.573 249 225.585C249.012 214.354 241.58 206.339 231.113 203C228.57 202.19 224.873 201.822 220.02 201.895C208.619 202.079 196.273 202.067 182.993 201.858C182.477 201.846 182.022 201.527 181.826 201.048C177.231 189.903 170.204 179.654 160.757 171.97C157.206 169.085 153.853 166.532 150.72 164.311V164.311Z" fill="#F9F9F9"/>
<path d="M332.592 267.475L353.501 218.831L378.423 270.387C378.558 270.657 378.927 270.657 379.062 270.387C396.15 236.263 412.452 202.729 427.968 169.784C429.307 166.949 431.15 165.096 433.521 164.199C433.976 164.027 434.455 163.929 434.946 163.917C435.057 163.905 447.317 163.843 471.74 163.721C476.58 163.696 480.954 165.562 480.966 170.693C481.076 217.839 481.15 275.419 481.163 343.433C481.163 346.244 480.806 348.244 480.106 349.447C479.05 351.252 477.293 352.16 474.823 352.172C462.158 352.283 453.951 352.369 450.229 352.442C445.462 352.54 441.113 351.227 441.113 346.231C441.027 302.976 440.929 268.312 440.818 242.241C440.818 241.1 440.745 239.921 440.61 238.694C440.56 238.277 440.008 238.154 439.799 238.522C439.467 239.111 437.6 242.609 434.221 249.017C430.622 255.829 414.185 289.044 384.922 348.637C383.152 352.234 376.556 353.989 373.583 351.018C371.224 348.662 369.185 343.776 367.894 341.26C355.29 316.723 347.145 300.607 343.472 292.898C340.263 286.167 335.405 275.062 332.592 267.475H332.592Z" fill="#F9F9F9"/>
<path d="M298.865 241.579C303.816 216.576 296.887 190.627 278.546 173.369C274.774 169.822 271.543 166.95 268.877 164.728C268.681 164.569 268.791 164.262 269.049 164.249C282.231 163.979 297.047 163.856 313.521 163.893C319.553 163.906 324.983 163.034 328.091 169.22C331.949 176.855 335.794 184.613 339.627 192.493L346.261 206.302C329.8 244.597 312.4 282.186 295.13 320.186C294.921 320.64 294.295 320.676 294.025 320.259L278.755 296.888L270.88 284.896C270.757 284.712 270.806 284.455 270.99 284.319C285.204 273.444 294.504 259.193 298.865 241.579L298.865 241.579Z" fill="#F9F9F9"/>
</svg>
