<svg width="39" height="39" viewBox="0 0 39 39" fill="none" xmlns="http://www.w3.org/2000/svg">
<path d="M26.96 22.3999C26.64 22.2399 24.56 21.2799 24.24 21.1199C23.92 20.9599 23.6 20.9599 23.28 21.2799C22.96 21.5999 22.32 22.5599 22 22.8799C21.84 23.1999 21.52 23.1999 21.2 23.0399C20.08 22.5599 18.96 21.9199 18 21.1199C17.2 20.3199 16.4 19.3599 15.76 18.3999C15.6 18.0799 15.76 17.7599 15.92 17.5999C16.08 17.4399 16.24 17.1199 16.56 16.9599C16.72 16.7999 16.88 16.4799 16.88 16.3199C17.04 16.1599 17.04 15.8399 16.88 15.6799C16.72 15.5199 15.92 13.5999 15.6 12.7999C15.44 11.6799 15.12 11.6799 14.8 11.6799C14.64 11.6799 14.32 11.6799 14 11.6799C13.68 11.6799 13.2 11.9999 13.04 12.1599C12.08 13.1199 11.6 14.2399 11.6 15.5199C11.76 16.9599 12.24 18.3999 13.2 19.6799C14.96 22.2399 17.2 24.3199 19.92 25.6C20.72 25.92 21.36 26.24 22.16 26.4C22.96 26.72 23.76 26.72 24.72 26.56C25.84 26.4 26.8 25.6 27.44 24.6399C27.76 23.9999 27.76 23.3599 27.6 22.7199C27.6 22.7199 27.28 22.5599 26.96 22.3999ZM30.96 7.83992C24.72 1.59991 14.64 1.59991 8.39997 7.83992C3.27998 12.9599 2.31998 20.7999 5.83997 27.04L3.59998 35.2L12.08 32.96C14.48 34.24 17.04 34.88 19.6 34.88C28.4 34.88 35.4399 27.84 35.4399 19.0399C35.5999 14.8799 33.84 10.8799 30.96 7.83992ZM26.64 30.24C24.56 31.52 22.16 32.32 19.6 32.32C17.2 32.32 14.96 31.68 12.88 30.56L12.4 30.24L7.43997 31.52L8.71997 26.72L8.39997 26.24C4.55997 19.8399 6.47997 11.8399 12.72 7.83992C18.96 3.83991 26.96 5.91992 30.8 11.9999C34.64 18.2399 32.88 26.4 26.64 30.24Z" fill="#F9F9F9"/>
</svg>
